<mxfile host="app.diagrams.net" modified="2023-05-09T11:34:42.201Z" agent="Mozilla/5.0 (X11; Linux x86_64) AppleWebKit/537.36 (KHTML, like Gecko) Chrome/112.0.0.0 Safari/537.36" etag="B2X0t-i2QYXv6dfdn8U9" version="21.2.3" type="device">
  <diagram id="C5RBs43oDa-KdzZeNtuy" name="Page-1">
    <mxGraphModel dx="1847" dy="2263" grid="1" gridSize="10" guides="1" tooltips="1" connect="1" arrows="1" fold="1" page="1" pageScale="1" pageWidth="827" pageHeight="1169" math="0" shadow="0">
      <root>
        <mxCell id="WIyWlLk6GJQsqaUBKTNV-0" />
        <mxCell id="WIyWlLk6GJQsqaUBKTNV-1" parent="WIyWlLk6GJQsqaUBKTNV-0" />
        <mxCell id="4EnHzQvOEP9zkQGpacSF-72" value="" style="endArrow=none;html=1;rounded=0;strokeColor=#67AB9F;strokeWidth=4;" parent="WIyWlLk6GJQsqaUBKTNV-1" edge="1">
          <mxGeometry width="50" height="50" relative="1" as="geometry">
            <mxPoint x="160" y="350" as="sourcePoint" />
            <mxPoint x="160" y="-370" as="targetPoint" />
          </mxGeometry>
        </mxCell>
        <mxCell id="zkfFHV4jXpPFQw0GAbJ--0" value="User / Χρήστης" style="swimlane;fontStyle=1;align=center;verticalAlign=top;childLayout=stackLayout;horizontal=1;startSize=30;horizontalStack=0;resizeParent=1;resizeLast=0;collapsible=1;marginBottom=0;rounded=0;shadow=0;strokeWidth=1;fontSize=20;" parent="WIyWlLk6GJQsqaUBKTNV-1" vertex="1">
          <mxGeometry x="735" y="-830" width="180" height="204" as="geometry">
            <mxRectangle x="230" y="140" width="160" height="26" as="alternateBounds" />
          </mxGeometry>
        </mxCell>
        <mxCell id="zkfFHV4jXpPFQw0GAbJ--1" value="- id: int&#xa;- username: String&#xa;- email: String&#xa;- password: String&#xa;+ setters/getters()&#xa;+ strore()" style="text;align=left;verticalAlign=top;spacingLeft=4;spacingRight=4;overflow=hidden;rotatable=0;points=[[0,0.5],[1,0.5]];portConstraint=eastwest;fontSize=20;" parent="zkfFHV4jXpPFQw0GAbJ--0" vertex="1">
          <mxGeometry y="30" width="180" height="170" as="geometry" />
        </mxCell>
        <mxCell id="2JS95DW83qILI5_Ju0iu-12" value="&lt;b style=&quot;font-size: 20px;&quot;&gt;Tour_Guide /&amp;nbsp;&lt;/b&gt;&lt;b style=&quot;border-color: var(--border-color);&quot;&gt;Ξεναγός&amp;nbsp;&lt;/b&gt;" style="swimlane;fontStyle=0;childLayout=stackLayout;horizontal=1;startSize=60;horizontalStack=0;resizeParent=1;resizeParentMax=0;resizeLast=0;collapsible=1;marginBottom=0;whiteSpace=wrap;html=1;verticalAlign=middle;fontSize=20;" parent="WIyWlLk6GJQsqaUBKTNV-1" vertex="1">
          <mxGeometry x="735" y="-570" width="190" height="170" as="geometry" />
        </mxCell>
        <mxCell id="2JS95DW83qILI5_Ju0iu-13" value="- IBAN: String&lt;br&gt;+ setters/getters()&lt;br&gt;+ store()" style="text;strokeColor=none;fillColor=none;align=left;verticalAlign=top;spacingLeft=4;spacingRight=4;overflow=hidden;points=[[0,0.5],[1,0.5]];portConstraint=eastwest;rotatable=0;whiteSpace=wrap;html=1;fontSize=20;" parent="2JS95DW83qILI5_Ju0iu-12" vertex="1">
          <mxGeometry y="60" width="190" height="110" as="geometry" />
        </mxCell>
        <mxCell id="2JS95DW83qILI5_Ju0iu-14" value="&lt;b style=&quot;border-color: var(--border-color);&quot;&gt;Host /&amp;nbsp;&lt;/b&gt;&lt;b style=&quot;font-size: 20px;&quot;&gt;Πολιτιστικός Οργανισμός&lt;/b&gt;" style="swimlane;fontStyle=0;childLayout=stackLayout;horizontal=1;startSize=65;horizontalStack=0;resizeParent=1;resizeParentMax=0;resizeLast=0;collapsible=1;marginBottom=0;whiteSpace=wrap;html=1;verticalAlign=middle;fontSize=20;" parent="WIyWlLk6GJQsqaUBKTNV-1" vertex="1">
          <mxGeometry x="1420" y="-545" width="190" height="210" as="geometry" />
        </mxCell>
        <mxCell id="2JS95DW83qILI5_Ju0iu-15" value="- IBAN: String&lt;br&gt;- name: String&lt;br&gt;- address: String&lt;br&gt;+ setters/getters()&lt;br&gt;+store()" style="text;strokeColor=none;fillColor=none;align=left;verticalAlign=top;spacingLeft=4;spacingRight=4;overflow=hidden;points=[[0,0.5],[1,0.5]];portConstraint=eastwest;rotatable=0;whiteSpace=wrap;html=1;fontSize=20;" parent="2JS95DW83qILI5_Ju0iu-14" vertex="1">
          <mxGeometry y="65" width="190" height="145" as="geometry" />
        </mxCell>
        <mxCell id="2JS95DW83qILI5_Ju0iu-20" value="" style="endArrow=blockThin;html=1;rounded=0;exitX=0.5;exitY=0;exitDx=0;exitDy=0;endFill=0;endSize=6;strokeWidth=2;fontSize=20;" parent="WIyWlLk6GJQsqaUBKTNV-1" source="2JS95DW83qILI5_Ju0iu-12" target="zkfFHV4jXpPFQw0GAbJ--1" edge="1">
          <mxGeometry width="50" height="50" relative="1" as="geometry">
            <mxPoint x="680" y="-450" as="sourcePoint" />
            <mxPoint x="730" y="-500" as="targetPoint" />
          </mxGeometry>
        </mxCell>
        <mxCell id="2JS95DW83qILI5_Ju0iu-25" value="&lt;b style=&quot;border-color: var(--border-color);&quot;&gt;Payment /&amp;nbsp;&lt;/b&gt;&lt;b style=&quot;font-size: 20px;&quot;&gt;Πληρωμή&lt;/b&gt;" style="swimlane;fontStyle=0;childLayout=stackLayout;horizontal=1;startSize=60;horizontalStack=0;resizeParent=1;resizeParentMax=0;resizeLast=0;collapsible=1;marginBottom=0;whiteSpace=wrap;html=1;verticalAlign=middle;fontSize=20;" parent="WIyWlLk6GJQsqaUBKTNV-1" vertex="1">
          <mxGeometry x="-170" y="-167" width="208" height="310" as="geometry" />
        </mxCell>
        <mxCell id="2JS95DW83qILI5_Ju0iu-26" value="- id: int&lt;br style=&quot;font-size: 20px;&quot;&gt;- user_id: int&lt;br style=&quot;font-size: 20px;&quot;&gt;- product_id: int&lt;br style=&quot;font-size: 20px;&quot;&gt;- amount: float&lt;br style=&quot;font-size: 20px;&quot;&gt;- date: DateTime&lt;br style=&quot;font-size: 20px;&quot;&gt;- receipt_path: String&lt;br&gt;&lt;br&gt;+ setters/getters()&lt;br&gt;+ store()&amp;nbsp;" style="text;strokeColor=none;fillColor=none;align=left;verticalAlign=top;spacingLeft=4;spacingRight=4;overflow=hidden;points=[[0,0.5],[1,0.5]];portConstraint=eastwest;rotatable=0;whiteSpace=wrap;html=1;fontSize=20;" parent="2JS95DW83qILI5_Ju0iu-25" vertex="1">
          <mxGeometry y="60" width="208" height="250" as="geometry" />
        </mxCell>
        <mxCell id="2MAmIg8SCS1WsiqoxTN9-8" value="" style="endArrow=none;html=1;rounded=0;exitX=0;exitY=0.5;exitDx=0;exitDy=0;entryX=1;entryY=0.5;entryDx=0;entryDy=0;" parent="2JS95DW83qILI5_Ju0iu-25" edge="1">
          <mxGeometry width="50" height="50" relative="1" as="geometry">
            <mxPoint x="2.2737367544323206e-13" y="225.00000000000023" as="sourcePoint" />
            <mxPoint x="208" y="225.00000000000023" as="targetPoint" />
          </mxGeometry>
        </mxCell>
        <mxCell id="2JS95DW83qILI5_Ju0iu-31" value="&lt;b style=&quot;border-color: var(--border-color);&quot;&gt;Job_Offer /&amp;nbsp;&lt;/b&gt;&lt;b style=&quot;font-size: 20px;&quot;&gt;Αγγελία Εργασίας&lt;/b&gt;" style="swimlane;fontStyle=0;childLayout=stackLayout;horizontal=1;startSize=50;horizontalStack=0;resizeParent=1;resizeParentMax=0;resizeLast=0;collapsible=1;marginBottom=0;whiteSpace=wrap;html=1;fontSize=20;" parent="WIyWlLk6GJQsqaUBKTNV-1" vertex="1">
          <mxGeometry x="1030" y="551" width="312.5" height="370" as="geometry" />
        </mxCell>
        <mxCell id="2JS95DW83qILI5_Ju0iu-32" value="- employer: Host&lt;br&gt;- date_opened: DateTime&lt;br&gt;- expires: DateTime&lt;br&gt;- title: String&lt;br&gt;- tags: List(String)&lt;br&gt;- no_employees: int&lt;br&gt;- description: String&lt;br&gt;- salary: float&lt;br&gt;- files_path: List(String)&lt;br&gt;- public: boolean&lt;br&gt;+ setters/getters()&lt;br&gt;+ store()" style="text;strokeColor=none;fillColor=none;align=left;verticalAlign=top;spacingLeft=4;spacingRight=4;overflow=hidden;points=[[0,0.5],[1,0.5]];portConstraint=eastwest;rotatable=0;whiteSpace=wrap;html=1;fontSize=20;" parent="2JS95DW83qILI5_Ju0iu-31" vertex="1">
          <mxGeometry y="50" width="312.5" height="320" as="geometry" />
        </mxCell>
        <mxCell id="2MAmIg8SCS1WsiqoxTN9-20" value="" style="endArrow=none;html=1;rounded=0;entryX=0.997;entryY=0.683;entryDx=0;entryDy=0;entryPerimeter=0;" parent="2JS95DW83qILI5_Ju0iu-31" edge="1">
          <mxGeometry width="50" height="50" relative="1" as="geometry">
            <mxPoint y="297" as="sourcePoint" />
            <mxPoint x="312.5024999999998" y="297" as="targetPoint" />
          </mxGeometry>
        </mxCell>
        <mxCell id="2JS95DW83qILI5_Ju0iu-35" value="&lt;b style=&quot;border-color: var(--border-color);&quot;&gt;Job_Application /&amp;nbsp;&lt;/b&gt;&lt;b style=&quot;font-size: 20px;&quot;&gt;Αίτηση Εργασίας&lt;/b&gt;" style="swimlane;fontStyle=0;childLayout=stackLayout;horizontal=1;startSize=50;horizontalStack=0;resizeParent=1;resizeParentMax=0;resizeLast=0;collapsible=1;marginBottom=0;whiteSpace=wrap;html=1;fontSize=20;" parent="WIyWlLk6GJQsqaUBKTNV-1" vertex="1">
          <mxGeometry x="277.5" y="540" width="322.5" height="240" as="geometry" />
        </mxCell>
        <mxCell id="2JS95DW83qILI5_Ju0iu-36" value="- applicant: enum(Simple_User,)&lt;br&gt;- respondingTo: JobOffer&lt;br&gt;- date_of_application: DateTime&lt;br&gt;- status: enum()&lt;br&gt;- files_path: List(String)&lt;br&gt;+ setters/getters()&lt;br&gt;+ store()" style="text;strokeColor=none;fillColor=none;align=left;verticalAlign=top;spacingLeft=4;spacingRight=4;overflow=hidden;points=[[0,0.5],[1,0.5]];portConstraint=eastwest;rotatable=0;whiteSpace=wrap;html=1;fontSize=20;" parent="2JS95DW83qILI5_Ju0iu-35" vertex="1">
          <mxGeometry y="50" width="322.5" height="190" as="geometry" />
        </mxCell>
        <mxCell id="2MAmIg8SCS1WsiqoxTN9-17" value="" style="endArrow=none;html=1;rounded=0;exitX=0;exitY=0.5;exitDx=0;exitDy=0;entryX=0.997;entryY=0.683;entryDx=0;entryDy=0;entryPerimeter=0;" parent="2JS95DW83qILI5_Ju0iu-35" edge="1">
          <mxGeometry width="50" height="50" relative="1" as="geometry">
            <mxPoint x="2.2737367544323206e-13" y="178.00000000000023" as="sourcePoint" />
            <mxPoint x="321.5324999999998" y="177.76999999999998" as="targetPoint" />
          </mxGeometry>
        </mxCell>
        <mxCell id="2JS95DW83qILI5_Ju0iu-37" value="&lt;b style=&quot;font-size: 20px;&quot;&gt;Tour /&amp;nbsp;&lt;/b&gt;&lt;b style=&quot;border-color: var(--border-color);&quot;&gt;Ξενάγηση&amp;nbsp;&lt;/b&gt;&lt;b style=&quot;font-size: 20px;&quot;&gt;&amp;nbsp;&lt;/b&gt;" style="swimlane;fontStyle=0;childLayout=stackLayout;horizontal=1;startSize=30;horizontalStack=0;resizeParent=1;resizeParentMax=0;resizeLast=0;collapsible=1;marginBottom=0;whiteSpace=wrap;html=1;fontSize=20;" parent="WIyWlLk6GJQsqaUBKTNV-1" vertex="1">
          <mxGeometry x="470" y="-300" width="305" height="510" as="geometry" />
        </mxCell>
        <mxCell id="2JS95DW83qILI5_Ju0iu-38" value="- id: int&amp;nbsp;&lt;br style=&quot;font-size: 20px;&quot;&gt;- title: String&lt;br style=&quot;font-size: 20px;&quot;&gt;- tags: List(String)&lt;br style=&quot;font-size: 20px;&quot;&gt;- virtual: boolean&lt;br style=&quot;font-size: 20px;&quot;&gt;- offered_by: TourGuide&lt;br style=&quot;font-size: 20px;&quot;&gt;- description: String&lt;br style=&quot;font-size: 20px;&quot;&gt;- duration: int&lt;br style=&quot;font-size: 20px;&quot;&gt;- public: boolean&lt;br style=&quot;font-size: 20px;&quot;&gt;- date_published: DateTime&lt;br style=&quot;font-size: 20px;&quot;&gt;- dates_available: List(DateTime)&lt;br&gt;- groups_per_date: int&lt;br style=&quot;font-size: 20px;&quot;&gt;- spots_per_group: int&lt;br&gt;- location: String&lt;br&gt;- price: float&lt;br style=&quot;font-size: 20px;&quot;&gt;- rating: float&lt;br style=&quot;font-size: 20px;&quot;&gt;- times_bought: int&lt;br&gt;+ setters/getters()&lt;br&gt;+store()" style="text;strokeColor=none;fillColor=none;align=left;verticalAlign=top;spacingLeft=4;spacingRight=4;overflow=hidden;points=[[0,0.5],[1,0.5]];portConstraint=eastwest;rotatable=0;whiteSpace=wrap;html=1;fontSize=20;" parent="2JS95DW83qILI5_Ju0iu-37" vertex="1">
          <mxGeometry y="30" width="305" height="480" as="geometry" />
        </mxCell>
        <mxCell id="2MAmIg8SCS1WsiqoxTN9-9" value="" style="endArrow=none;html=1;rounded=0;exitX=0;exitY=0.5;exitDx=0;exitDy=0;" parent="2JS95DW83qILI5_Ju0iu-37" edge="1">
          <mxGeometry width="50" height="50" relative="1" as="geometry">
            <mxPoint x="-2.4999999999997726" y="421.0000000000002" as="sourcePoint" />
            <mxPoint x="303" y="421" as="targetPoint" />
          </mxGeometry>
        </mxCell>
        <mxCell id="2JS95DW83qILI5_Ju0iu-39" value="&lt;b style=&quot;border-color: var(--border-color);&quot;&gt;Virtual_Tour /&lt;/b&gt;&lt;b style=&quot;font-size: 20px;&quot;&gt;Εικονική Ξενάγηση&amp;nbsp;&lt;/b&gt;" style="swimlane;fontStyle=0;childLayout=stackLayout;horizontal=1;startSize=60;horizontalStack=0;resizeParent=1;resizeParentMax=0;resizeLast=0;collapsible=1;marginBottom=0;whiteSpace=wrap;html=1;fontSize=20;" parent="WIyWlLk6GJQsqaUBKTNV-1" vertex="1">
          <mxGeometry x="230" y="90" width="205" height="170" as="geometry" />
        </mxCell>
        <mxCell id="2JS95DW83qILI5_Ju0iu-40" value="- path: String&lt;br&gt;&lt;br&gt;+ setters/getters()&lt;br&gt;+store()" style="text;strokeColor=none;fillColor=none;align=left;verticalAlign=top;spacingLeft=4;spacingRight=4;overflow=hidden;points=[[0,0.5],[1,0.5]];portConstraint=eastwest;rotatable=0;whiteSpace=wrap;html=1;fontSize=20;" parent="2JS95DW83qILI5_Ju0iu-39" vertex="1">
          <mxGeometry y="60" width="205" height="110" as="geometry" />
        </mxCell>
        <mxCell id="2JS95DW83qILI5_Ju0iu-44" value="&lt;b style=&quot;border-color: var(--border-color);&quot;&gt;Event /&amp;nbsp;&lt;/b&gt;&lt;b style=&quot;font-size: 20px;&quot;&gt;Εκδήλωση&lt;/b&gt;" style="swimlane;fontStyle=0;childLayout=stackLayout;horizontal=1;startSize=30;horizontalStack=0;resizeParent=1;resizeParentMax=0;resizeLast=0;collapsible=1;marginBottom=0;whiteSpace=wrap;html=1;fontSize=20;" parent="WIyWlLk6GJQsqaUBKTNV-1" vertex="1">
          <mxGeometry x="1030" y="120" width="270" height="400" as="geometry" />
        </mxCell>
        <mxCell id="2JS95DW83qILI5_Ju0iu-45" value="- id: int&amp;nbsp;&lt;br style=&quot;font-size: 20px;&quot;&gt;- title: String&lt;br style=&quot;font-size: 20px;&quot;&gt;- tags: List(String)&lt;br style=&quot;font-size: 20px;&quot;&gt;- planner: enum(Tour_Guide, Host)&lt;br style=&quot;font-size: 20px;&quot;&gt;- publisher:&amp;nbsp;&lt;br style=&quot;font-size: 20px;&quot;&gt;- description: String&lt;br style=&quot;font-size: 20px;&quot;&gt;- date_of_event: DateTime&lt;br&gt;- location: String&lt;br style=&quot;font-size: 20px;&quot;&gt;- date_uploaded: DateTime&lt;br style=&quot;font-size: 20px;&quot;&gt;- rating: float&amp;nbsp;&lt;br&gt;- attends: int&lt;br&gt;+ setters/getters()&lt;br&gt;+ store()" style="text;strokeColor=none;fillColor=none;align=left;verticalAlign=top;spacingLeft=4;spacingRight=4;overflow=hidden;points=[[0,0.5],[1,0.5]];portConstraint=eastwest;rotatable=0;whiteSpace=wrap;html=1;fontSize=20;" parent="2JS95DW83qILI5_Ju0iu-44" vertex="1">
          <mxGeometry y="30" width="270" height="370" as="geometry" />
        </mxCell>
        <mxCell id="2MAmIg8SCS1WsiqoxTN9-16" value="" style="endArrow=none;html=1;rounded=0;exitX=-0.001;exitY=0.706;exitDx=0;exitDy=0;exitPerimeter=0;" parent="2JS95DW83qILI5_Ju0iu-44" edge="1">
          <mxGeometry width="50" height="50" relative="1" as="geometry">
            <mxPoint x="0.004999999999881766" y="325.6200000000001" as="sourcePoint" />
            <mxPoint x="270" y="326" as="targetPoint" />
          </mxGeometry>
        </mxCell>
        <mxCell id="2JS95DW83qILI5_Ju0iu-46" value="&lt;b style=&quot;font-size: 20px;&quot;&gt;Quiz&lt;/b&gt;" style="swimlane;fontStyle=0;childLayout=stackLayout;horizontal=1;startSize=30;horizontalStack=0;resizeParent=1;resizeParentMax=0;resizeLast=0;collapsible=1;marginBottom=0;whiteSpace=wrap;html=1;fontSize=20;" parent="WIyWlLk6GJQsqaUBKTNV-1" vertex="1">
          <mxGeometry x="1015" y="-260" width="255" height="300" as="geometry" />
        </mxCell>
        <mxCell id="2JS95DW83qILI5_Ju0iu-47" value="- id: int&amp;nbsp;&lt;br style=&quot;font-size: 20px;&quot;&gt;- title: String&lt;br style=&quot;font-size: 20px;&quot;&gt;- on_tour: Tour&lt;br style=&quot;font-size: 20px;&quot;&gt;- description: String&lt;br style=&quot;font-size: 20px;&quot;&gt;- success_point: int&lt;br&gt;- path: String&lt;br style=&quot;font-size: 20px;&quot;&gt;- date_uploaded: DateTime&lt;br&gt;&lt;br&gt;+ setters/getters()&lt;br&gt;+store()" style="text;strokeColor=none;fillColor=none;align=left;verticalAlign=top;spacingLeft=4;spacingRight=4;overflow=hidden;points=[[0,0.5],[1,0.5]];portConstraint=eastwest;rotatable=0;whiteSpace=wrap;html=1;fontSize=20;" parent="2JS95DW83qILI5_Ju0iu-46" vertex="1">
          <mxGeometry y="30" width="255" height="270" as="geometry" />
        </mxCell>
        <mxCell id="2JS95DW83qILI5_Ju0iu-66" value="" style="endArrow=none;html=1;rounded=0;exitX=0.557;exitY=-0.009;exitDx=0;exitDy=0;strokeColor=#67AB9F;strokeWidth=4;entryX=0.174;entryY=1.024;entryDx=0;entryDy=0;entryPerimeter=0;fontSize=20;exitPerimeter=0;" parent="WIyWlLk6GJQsqaUBKTNV-1" source="2JS95DW83qILI5_Ju0iu-25" edge="1">
          <mxGeometry width="50" height="50" relative="1" as="geometry">
            <mxPoint x="30" y="-360" as="sourcePoint" />
            <mxPoint x="43.059999999999945" y="-366.8800000000001" as="targetPoint" />
            <Array as="points">
              <mxPoint x="-54" y="-280" />
              <mxPoint x="43" y="-280" />
            </Array>
          </mxGeometry>
        </mxCell>
        <mxCell id="2JS95DW83qILI5_Ju0iu-67" value="" style="endArrow=none;html=1;rounded=0;exitX=0.666;exitY=0.006;exitDx=0;exitDy=0;startArrow=none;startFill=0;strokeWidth=4;strokeColor=#99004D;fontSize=20;entryX=0.135;entryY=0.999;entryDx=0;entryDy=0;entryPerimeter=0;exitPerimeter=0;" parent="WIyWlLk6GJQsqaUBKTNV-1" source="2JS95DW83qILI5_Ju0iu-37" target="2JS95DW83qILI5_Ju0iu-13" edge="1">
          <mxGeometry width="50" height="50" relative="1" as="geometry">
            <mxPoint x="670" y="-250" as="sourcePoint" />
            <mxPoint x="720" y="-300" as="targetPoint" />
            <Array as="points">
              <mxPoint x="673" y="-340" />
              <mxPoint x="760" y="-340" />
            </Array>
          </mxGeometry>
        </mxCell>
        <mxCell id="2JS95DW83qILI5_Ju0iu-69" value="" style="endArrow=none;html=1;rounded=0;startArrow=block;startFill=0;entryX=0.5;entryY=0;entryDx=0;entryDy=0;fontSize=20;" parent="WIyWlLk6GJQsqaUBKTNV-1" source="2JS95DW83qILI5_Ju0iu-38" target="2JS95DW83qILI5_Ju0iu-39" edge="1">
          <mxGeometry width="50" height="50" relative="1" as="geometry">
            <mxPoint x="462.41499999999996" y="-10.800000000000182" as="sourcePoint" />
            <mxPoint x="650" y="50" as="targetPoint" />
          </mxGeometry>
        </mxCell>
        <mxCell id="2JS95DW83qILI5_Ju0iu-70" value="" style="endArrow=none;html=1;rounded=0;entryX=0.479;entryY=1.005;entryDx=0;entryDy=0;entryPerimeter=0;strokeColor=#7EA6E0;strokeWidth=4;fontSize=20;exitX=0.997;exitY=0.028;exitDx=0;exitDy=0;exitPerimeter=0;" parent="WIyWlLk6GJQsqaUBKTNV-1" source="2JS95DW83qILI5_Ju0iu-37" target="2JS95DW83qILI5_Ju0iu-15" edge="1">
          <mxGeometry width="50" height="50" relative="1" as="geometry">
            <mxPoint x="780" y="-280" as="sourcePoint" />
            <mxPoint x="930" y="-340" as="targetPoint" />
            <Array as="points">
              <mxPoint x="1511" y="-286" />
            </Array>
          </mxGeometry>
        </mxCell>
        <mxCell id="2JS95DW83qILI5_Ju0iu-72" value="" style="endArrow=none;html=1;rounded=0;strokeWidth=4;strokeColor=#99004D;fontSize=20;entryX=0.71;entryY=1.012;entryDx=0;entryDy=0;entryPerimeter=0;" parent="WIyWlLk6GJQsqaUBKTNV-1" target="2JS95DW83qILI5_Ju0iu-13" edge="1">
          <mxGeometry width="50" height="50" relative="1" as="geometry">
            <mxPoint x="1066" y="-260" as="sourcePoint" />
            <mxPoint x="860" y="-400" as="targetPoint" />
            <Array as="points">
              <mxPoint x="1066" y="-340" />
              <mxPoint x="870" y="-340" />
            </Array>
          </mxGeometry>
        </mxCell>
        <mxCell id="2JS95DW83qILI5_Ju0iu-73" value="" style="endArrow=none;html=1;rounded=0;strokeColor=#7EA6E0;strokeWidth=4;fontSize=20;" parent="WIyWlLk6GJQsqaUBKTNV-1" edge="1">
          <mxGeometry width="50" height="50" relative="1" as="geometry">
            <mxPoint x="1272" y="-140" as="sourcePoint" />
            <mxPoint x="1510" y="-334" as="targetPoint" />
            <Array as="points">
              <mxPoint x="1510" y="-140" />
              <mxPoint x="1510" y="-280" />
            </Array>
          </mxGeometry>
        </mxCell>
        <mxCell id="2JS95DW83qILI5_Ju0iu-119" value="&lt;font style=&quot;font-size: 22px;&quot;&gt;&lt;b&gt;δημιουργεί&lt;/b&gt;&lt;/font&gt;" style="edgeLabel;html=1;align=center;verticalAlign=middle;resizable=0;points=[];" parent="2JS95DW83qILI5_Ju0iu-73" vertex="1" connectable="0">
          <mxGeometry x="0.104" relative="1" as="geometry">
            <mxPoint x="-117" as="offset" />
          </mxGeometry>
        </mxCell>
        <mxCell id="2JS95DW83qILI5_Ju0iu-77" value="" style="endArrow=none;html=1;rounded=0;entryX=0.48;entryY=1.043;entryDx=0;entryDy=0;entryPerimeter=0;strokeColor=#7EA6E0;strokeWidth=4;fontSize=20;" parent="WIyWlLk6GJQsqaUBKTNV-1" target="2JS95DW83qILI5_Ju0iu-15" edge="1">
          <mxGeometry width="50" height="50" relative="1" as="geometry">
            <mxPoint x="1300" y="220" as="sourcePoint" />
            <mxPoint x="1130" y="-250" as="targetPoint" />
            <Array as="points">
              <mxPoint x="1511" y="220" />
            </Array>
          </mxGeometry>
        </mxCell>
        <mxCell id="2JS95DW83qILI5_Ju0iu-78" value="" style="endArrow=none;html=1;rounded=0;entryX=0.493;entryY=1.009;entryDx=0;entryDy=0;entryPerimeter=0;strokeWidth=4;strokeColor=#7EA6E0;fontSize=20;exitX=1;exitY=0.309;exitDx=0;exitDy=0;exitPerimeter=0;" parent="WIyWlLk6GJQsqaUBKTNV-1" source="2JS95DW83qILI5_Ju0iu-32" target="2JS95DW83qILI5_Ju0iu-15" edge="1">
          <mxGeometry width="50" height="50" relative="1" as="geometry">
            <mxPoint x="1350" y="701" as="sourcePoint" />
            <mxPoint x="1130" as="targetPoint" />
            <Array as="points">
              <mxPoint x="1510" y="701" />
            </Array>
          </mxGeometry>
        </mxCell>
        <mxCell id="2JS95DW83qILI5_Ju0iu-87" value="" style="endArrow=none;html=1;rounded=0;entryX=0.368;entryY=1.015;entryDx=0;entryDy=0;entryPerimeter=0;strokeWidth=4;strokeColor=#67AB9F;fontSize=20;" parent="WIyWlLk6GJQsqaUBKTNV-1" edge="1">
          <mxGeometry width="50" height="50" relative="1" as="geometry">
            <mxPoint x="270" y="644" as="sourcePoint" />
            <mxPoint x="79.92000000000007" y="-368.04999999999995" as="targetPoint" />
            <Array as="points">
              <mxPoint x="80" y="644" />
            </Array>
          </mxGeometry>
        </mxCell>
        <mxCell id="2JS95DW83qILI5_Ju0iu-89" value="" style="endArrow=none;html=1;rounded=0;strokeWidth=4;strokeColor=#67AB9F;fontSize=20;entryX=-0.003;entryY=0.29;entryDx=0;entryDy=0;entryPerimeter=0;" parent="WIyWlLk6GJQsqaUBKTNV-1" target="2JS95DW83qILI5_Ju0iu-38" edge="1">
          <mxGeometry width="50" height="50" relative="1" as="geometry">
            <mxPoint x="160" y="-131" as="sourcePoint" />
            <mxPoint x="470" y="-130" as="targetPoint" />
          </mxGeometry>
        </mxCell>
        <mxCell id="2JS95DW83qILI5_Ju0iu-91" value="" style="endArrow=none;html=1;rounded=0;strokeColor=#67AB9F;strokeWidth=4;fontSize=20;" parent="WIyWlLk6GJQsqaUBKTNV-1" edge="1">
          <mxGeometry width="50" height="50" relative="1" as="geometry">
            <mxPoint x="160" y="351" as="sourcePoint" />
            <mxPoint x="1020" y="350" as="targetPoint" />
            <Array as="points" />
          </mxGeometry>
        </mxCell>
        <mxCell id="2JS95DW83qILI5_Ju0iu-100" value="&lt;b style=&quot;font-size: 20px;&quot;&gt;DB communicator&lt;/b&gt;" style="swimlane;fontStyle=0;childLayout=stackLayout;horizontal=1;startSize=30;horizontalStack=0;resizeParent=1;resizeParentMax=0;resizeLast=0;collapsible=1;marginBottom=0;whiteSpace=wrap;html=1;fontSize=20;" parent="WIyWlLk6GJQsqaUBKTNV-1" vertex="1">
          <mxGeometry x="38" y="824" width="205" height="240" as="geometry" />
        </mxCell>
        <mxCell id="2JS95DW83qILI5_Ju0iu-101" value="- dbname: String&lt;br style=&quot;font-size: 20px;&quot;&gt;- host: String&lt;br style=&quot;font-size: 20px;&quot;&gt;- password: String&lt;br&gt;&lt;br&gt;+ connect()&lt;br&gt;+ disconnect()&lt;br&gt;+ makeQuery()" style="text;strokeColor=none;fillColor=none;align=left;verticalAlign=top;spacingLeft=4;spacingRight=4;overflow=hidden;points=[[0,0.5],[1,0.5]];portConstraint=eastwest;rotatable=0;whiteSpace=wrap;html=1;fontSize=20;" parent="2JS95DW83qILI5_Ju0iu-100" vertex="1">
          <mxGeometry y="30" width="205" height="210" as="geometry" />
        </mxCell>
        <mxCell id="2MAmIg8SCS1WsiqoxTN9-22" value="" style="endArrow=none;html=1;rounded=0;exitX=0;exitY=0.5;exitDx=0;exitDy=0;entryX=1;entryY=0.5;entryDx=0;entryDy=0;" parent="2JS95DW83qILI5_Ju0iu-100" edge="1">
          <mxGeometry width="50" height="50" relative="1" as="geometry">
            <mxPoint y="127" as="sourcePoint" />
            <mxPoint x="205" y="127" as="targetPoint" />
          </mxGeometry>
        </mxCell>
        <mxCell id="2JS95DW83qILI5_Ju0iu-104" value="Main" style="swimlane;fontStyle=1;align=center;verticalAlign=top;childLayout=stackLayout;horizontal=1;startSize=40;horizontalStack=0;resizeParent=1;resizeLast=0;collapsible=1;marginBottom=0;rounded=0;shadow=0;strokeWidth=1;fontSize=20;" parent="WIyWlLk6GJQsqaUBKTNV-1" vertex="1">
          <mxGeometry x="310" y="882" width="160" height="124" as="geometry">
            <mxRectangle x="230" y="140" width="160" height="26" as="alternateBounds" />
          </mxGeometry>
        </mxCell>
        <mxCell id="2JS95DW83qILI5_Ju0iu-105" value="current_user&#xa;current_type" style="text;align=left;verticalAlign=top;spacingLeft=4;spacingRight=4;overflow=hidden;rotatable=0;points=[[0,0.5],[1,0.5]];portConstraint=eastwest;fontSize=20;" parent="2JS95DW83qILI5_Ju0iu-104" vertex="1">
          <mxGeometry y="40" width="160" height="84" as="geometry" />
        </mxCell>
        <mxCell id="2JS95DW83qILI5_Ju0iu-111" value="" style="endArrow=none;html=1;rounded=0;strokeColor=#67AB9F;strokeWidth=4;" parent="WIyWlLk6GJQsqaUBKTNV-1" edge="1">
          <mxGeometry width="50" height="50" relative="1" as="geometry">
            <mxPoint x="840" y="350" as="sourcePoint" />
            <mxPoint x="1010" y="-106" as="targetPoint" />
            <Array as="points">
              <mxPoint x="840" y="-106" />
            </Array>
          </mxGeometry>
        </mxCell>
        <mxCell id="2JS95DW83qILI5_Ju0iu-90" value="" style="endArrow=none;html=1;rounded=0;strokeColor=#99004D;strokeWidth=4;fontSize=20;" parent="WIyWlLk6GJQsqaUBKTNV-1" edge="1">
          <mxGeometry width="50" height="50" relative="1" as="geometry">
            <mxPoint x="1029" y="220" as="sourcePoint" />
            <mxPoint x="870" y="-340" as="targetPoint" />
            <Array as="points">
              <mxPoint x="870" y="220" />
            </Array>
          </mxGeometry>
        </mxCell>
        <mxCell id="2JS95DW83qILI5_Ju0iu-114" value="&lt;font style=&quot;font-size: 20px;&quot;&gt;κάνει&lt;/font&gt;" style="edgeLabel;html=1;align=center;verticalAlign=middle;resizable=0;points=[];fontStyle=1;fontSize=20;" parent="WIyWlLk6GJQsqaUBKTNV-1" vertex="1" connectable="0">
          <mxGeometry x="-44" y="-287.00400887643127" as="geometry">
            <mxPoint x="6" y="2" as="offset" />
          </mxGeometry>
        </mxCell>
        <mxCell id="2JS95DW83qILI5_Ju0iu-120" value="&lt;span style=&quot;font-size: 22px;&quot;&gt;&lt;b&gt;οργανώνει&lt;/b&gt;&lt;/span&gt;" style="edgeLabel;html=1;align=center;verticalAlign=middle;resizable=0;points=[];" parent="WIyWlLk6GJQsqaUBKTNV-1" vertex="1" connectable="0">
          <mxGeometry x="1406.9998661324591" y="220" as="geometry">
            <mxPoint x="-9" y="-3" as="offset" />
          </mxGeometry>
        </mxCell>
        <mxCell id="2JS95DW83qILI5_Ju0iu-121" value="&lt;font style=&quot;font-size: 22px;&quot;&gt;&lt;b&gt;ανεβάζει&lt;/b&gt;&lt;/font&gt;" style="edgeLabel;html=1;align=center;verticalAlign=middle;resizable=0;points=[];" parent="WIyWlLk6GJQsqaUBKTNV-1" vertex="1" connectable="0">
          <mxGeometry x="1439.9998661324591" y="690" as="geometry" />
        </mxCell>
        <mxCell id="2JS95DW83qILI5_Ju0iu-122" value="&lt;font style=&quot;font-size: 22px;&quot;&gt;&lt;b&gt;δημιουργεί&lt;/b&gt;&lt;/font&gt;" style="edgeLabel;html=1;align=center;verticalAlign=middle;resizable=0;points=[];" parent="WIyWlLk6GJQsqaUBKTNV-1" vertex="1" connectable="0">
          <mxGeometry x="999.9998661324591" y="-340" as="geometry" />
        </mxCell>
        <mxCell id="2JS95DW83qILI5_Ju0iu-123" value="&lt;font style=&quot;font-size: 22px;&quot;&gt;&lt;b&gt;δημιουργεί&lt;/b&gt;&lt;/font&gt;" style="edgeLabel;html=1;align=center;verticalAlign=middle;resizable=0;points=[];" parent="WIyWlLk6GJQsqaUBKTNV-1" vertex="1" connectable="0">
          <mxGeometry x="672.4998661324591" y="-340" as="geometry" />
        </mxCell>
        <mxCell id="2JS95DW83qILI5_Ju0iu-124" value="&lt;span style=&quot;font-size: 22px;&quot;&gt;&lt;b&gt;οργανώνει/&lt;br&gt;δημοσιεύει&lt;br&gt;&lt;/b&gt;&lt;/span&gt;" style="edgeLabel;html=1;align=center;verticalAlign=middle;resizable=0;points=[];" parent="WIyWlLk6GJQsqaUBKTNV-1" vertex="1" connectable="0">
          <mxGeometry x="947.9998661324591" y="220" as="geometry">
            <mxPoint x="-9" y="-3" as="offset" />
          </mxGeometry>
        </mxCell>
        <mxCell id="2JS95DW83qILI5_Ju0iu-125" value="&lt;font style=&quot;font-size: 22px;&quot;&gt;&lt;b&gt;συμμετέχει σε&lt;/b&gt;&lt;/font&gt;" style="edgeLabel;html=1;align=center;verticalAlign=middle;resizable=0;points=[];" parent="WIyWlLk6GJQsqaUBKTNV-1" vertex="1" connectable="0">
          <mxGeometry x="319.99986613245915" y="-130" as="geometry" />
        </mxCell>
        <mxCell id="2JS95DW83qILI5_Ju0iu-126" value="&lt;font style=&quot;font-size: 22px;&quot;&gt;&lt;b&gt;συμμετέχει σε&lt;/b&gt;&lt;/font&gt;" style="edgeLabel;html=1;align=center;verticalAlign=middle;resizable=0;points=[];" parent="WIyWlLk6GJQsqaUBKTNV-1" vertex="1" connectable="0">
          <mxGeometry x="639.9998661324591" y="350" as="geometry" />
        </mxCell>
        <mxCell id="2JS95DW83qILI5_Ju0iu-127" value="&lt;span style=&quot;font-size: 22px;&quot;&gt;&lt;b&gt;συμπληρώνει&lt;/b&gt;&lt;/span&gt;" style="edgeLabel;html=1;align=center;verticalAlign=middle;resizable=0;points=[];" parent="WIyWlLk6GJQsqaUBKTNV-1" vertex="1" connectable="0">
          <mxGeometry x="157.49986613245915" y="590" as="geometry" />
        </mxCell>
        <mxCell id="Nq94yrtiY547T0VePZfC-3" value="&lt;font style=&quot;font-size: 22px;&quot;&gt;&lt;b&gt;δημιουργεί&lt;/b&gt;&lt;/font&gt;" style="edgeLabel;html=1;align=center;verticalAlign=middle;resizable=0;points=[];" parent="WIyWlLk6GJQsqaUBKTNV-1" vertex="1" connectable="0">
          <mxGeometry x="1399.6666666666665" y="-290" as="geometry" />
        </mxCell>
        <mxCell id="kp8T2773RT96hPyNPX0w-0" value="" style="endArrow=none;html=1;rounded=0;strokeColor=#99004D;strokeWidth=4;fontSize=20;exitX=0.315;exitY=0.005;exitDx=0;exitDy=0;exitPerimeter=0;" parent="WIyWlLk6GJQsqaUBKTNV-1" source="2JS95DW83qILI5_Ju0iu-35" edge="1">
          <mxGeometry width="50" height="50" relative="1" as="geometry">
            <mxPoint x="414" y="550" as="sourcePoint" />
            <mxPoint x="811" y="-400" as="targetPoint" />
            <Array as="points">
              <mxPoint x="380" y="460" />
              <mxPoint x="811" y="460" />
            </Array>
          </mxGeometry>
        </mxCell>
        <mxCell id="kp8T2773RT96hPyNPX0w-1" value="&lt;span style=&quot;font-size: 22px;&quot;&gt;&lt;b&gt;συμπληρώνει&lt;/b&gt;&lt;/span&gt;" style="edgeLabel;html=1;align=center;verticalAlign=middle;resizable=0;points=[];" parent="WIyWlLk6GJQsqaUBKTNV-1" vertex="1" connectable="0">
          <mxGeometry x="699.9998661324591" y="457" as="geometry" />
        </mxCell>
        <mxCell id="B54o90lFZYQQe0Ja8sb2-3" value="" style="endArrow=none;html=1;rounded=0;endFill=0;fontSize=20;entryX=1.019;entryY=0.25;entryDx=0;entryDy=0;strokeWidth=1;startArrow=none;startFill=0;entryPerimeter=0;" parent="WIyWlLk6GJQsqaUBKTNV-1" target="2JS95DW83qILI5_Ju0iu-38" edge="1">
          <mxGeometry width="50" height="50" relative="1" as="geometry">
            <mxPoint x="1010" y="-150" as="sourcePoint" />
            <mxPoint x="800" y="-150" as="targetPoint" />
          </mxGeometry>
        </mxCell>
        <mxCell id="B54o90lFZYQQe0Ja8sb2-12" value="" style="endArrow=none;html=1;rounded=0;entryX=0;entryY=0.5;entryDx=0;entryDy=0;strokeColor=#6D1F00;fillColor=#a0522d;strokeWidth=3;" parent="WIyWlLk6GJQsqaUBKTNV-1" target="2JS95DW83qILI5_Ju0iu-38" edge="1">
          <mxGeometry width="50" height="50" relative="1" as="geometry">
            <mxPoint x="40" y="-30" as="sourcePoint" />
            <mxPoint x="470.00000000000045" y="-30" as="targetPoint" />
          </mxGeometry>
        </mxCell>
        <mxCell id="B54o90lFZYQQe0Ja8sb2-14" value="&lt;b style=&quot;&quot;&gt;&lt;font style=&quot;font-size: 21px;&quot;&gt;αφορά&lt;/font&gt;&lt;/b&gt;" style="edgeLabel;html=1;align=center;verticalAlign=middle;resizable=0;points=[];" parent="B54o90lFZYQQe0Ja8sb2-12" vertex="1" connectable="0">
          <mxGeometry x="-0.4057" y="-3" relative="1" as="geometry">
            <mxPoint x="122" y="-3" as="offset" />
          </mxGeometry>
        </mxCell>
        <mxCell id="B54o90lFZYQQe0Ja8sb2-16" value="&lt;b style=&quot;&quot;&gt;&lt;font style=&quot;font-size: 21px;&quot;&gt;αφορά&lt;/font&gt;&lt;/b&gt;" style="edgeLabel;html=1;align=center;verticalAlign=middle;resizable=0;points=[];" parent="WIyWlLk6GJQsqaUBKTNV-1" vertex="1" connectable="0">
          <mxGeometry x="350" y="-17" as="geometry">
            <mxPoint x="594" y="-138" as="offset" />
          </mxGeometry>
        </mxCell>
        <mxCell id="4EnHzQvOEP9zkQGpacSF-0" value="*" style="text;html=1;strokeColor=none;fillColor=none;align=center;verticalAlign=middle;whiteSpace=wrap;rounded=0;fontSize=30;fontStyle=1" parent="WIyWlLk6GJQsqaUBKTNV-1" vertex="1">
          <mxGeometry x="38" y="-584" width="60" height="30" as="geometry" />
        </mxCell>
        <mxCell id="4EnHzQvOEP9zkQGpacSF-11" value="1" style="text;html=1;strokeColor=none;fillColor=none;align=center;verticalAlign=middle;whiteSpace=wrap;rounded=0;fontSize=22;fontStyle=1" parent="WIyWlLk6GJQsqaUBKTNV-1" vertex="1">
          <mxGeometry x="849" y="-404" width="60" height="30" as="geometry" />
        </mxCell>
        <mxCell id="4EnHzQvOEP9zkQGpacSF-12" value="*" style="text;html=1;strokeColor=none;fillColor=none;align=center;verticalAlign=middle;whiteSpace=wrap;rounded=0;fontSize=30;fontStyle=1" parent="WIyWlLk6GJQsqaUBKTNV-1" vertex="1">
          <mxGeometry x="663" y="-320" width="60" height="30" as="geometry" />
        </mxCell>
        <mxCell id="4EnHzQvOEP9zkQGpacSF-13" value="*" style="text;html=1;strokeColor=none;fillColor=none;align=center;verticalAlign=middle;whiteSpace=wrap;rounded=0;fontSize=30;fontStyle=1" parent="WIyWlLk6GJQsqaUBKTNV-1" vertex="1">
          <mxGeometry x="1010" y="-279" width="60" height="30" as="geometry" />
        </mxCell>
        <mxCell id="4EnHzQvOEP9zkQGpacSF-14" value="1" style="text;html=1;strokeColor=none;fillColor=none;align=center;verticalAlign=middle;whiteSpace=wrap;rounded=0;fontSize=22;fontStyle=1" parent="WIyWlLk6GJQsqaUBKTNV-1" vertex="1">
          <mxGeometry x="767" y="-180" width="60" height="30" as="geometry" />
        </mxCell>
        <mxCell id="4EnHzQvOEP9zkQGpacSF-15" value="1" style="text;html=1;strokeColor=none;fillColor=none;align=center;verticalAlign=middle;whiteSpace=wrap;rounded=0;fontSize=22;fontStyle=1" parent="WIyWlLk6GJQsqaUBKTNV-1" vertex="1">
          <mxGeometry x="970" y="-180" width="60" height="30" as="geometry" />
        </mxCell>
        <mxCell id="4EnHzQvOEP9zkQGpacSF-36" value="*" style="text;html=1;strokeColor=none;fillColor=none;align=center;verticalAlign=middle;whiteSpace=wrap;rounded=0;fontSize=30;fontStyle=1" parent="WIyWlLk6GJQsqaUBKTNV-1" vertex="1">
          <mxGeometry x="991" y="198" width="60" height="30" as="geometry" />
        </mxCell>
        <mxCell id="4EnHzQvOEP9zkQGpacSF-37" value="*" style="text;html=1;strokeColor=none;fillColor=none;align=center;verticalAlign=middle;whiteSpace=wrap;rounded=0;fontSize=30;fontStyle=1" parent="WIyWlLk6GJQsqaUBKTNV-1" vertex="1">
          <mxGeometry x="310" y="510" width="60" height="30" as="geometry" />
        </mxCell>
        <mxCell id="4EnHzQvOEP9zkQGpacSF-38" value="1" style="text;html=1;strokeColor=none;fillColor=none;align=center;verticalAlign=middle;whiteSpace=wrap;rounded=0;fontSize=22;fontStyle=1" parent="WIyWlLk6GJQsqaUBKTNV-1" vertex="1">
          <mxGeometry x="723" y="-404" width="60" height="30" as="geometry" />
        </mxCell>
        <mxCell id="4EnHzQvOEP9zkQGpacSF-40" value="*" style="text;html=1;strokeColor=none;fillColor=none;align=center;verticalAlign=middle;whiteSpace=wrap;rounded=0;fontSize=30;fontStyle=1" parent="WIyWlLk6GJQsqaUBKTNV-1" vertex="1">
          <mxGeometry x="771" y="-400" width="60" height="30" as="geometry" />
        </mxCell>
        <mxCell id="4EnHzQvOEP9zkQGpacSF-42" value="*" style="text;html=1;strokeColor=none;fillColor=none;align=center;verticalAlign=middle;whiteSpace=wrap;rounded=0;fontSize=30;fontStyle=1" parent="WIyWlLk6GJQsqaUBKTNV-1" vertex="1">
          <mxGeometry x="230" y="620" width="60" height="30" as="geometry" />
        </mxCell>
        <mxCell id="4EnHzQvOEP9zkQGpacSF-43" value="*" style="text;html=1;strokeColor=none;fillColor=none;align=center;verticalAlign=middle;whiteSpace=wrap;rounded=0;fontSize=30;fontStyle=1" parent="WIyWlLk6GJQsqaUBKTNV-1" vertex="1">
          <mxGeometry x="142.5" y="-365" width="60" height="30" as="geometry" />
        </mxCell>
        <mxCell id="4EnHzQvOEP9zkQGpacSF-48" value="*" style="text;html=1;strokeColor=none;fillColor=none;align=center;verticalAlign=middle;whiteSpace=wrap;rounded=0;fontSize=30;fontStyle=1" parent="WIyWlLk6GJQsqaUBKTNV-1" vertex="1">
          <mxGeometry x="955" y="330" width="60" height="30" as="geometry" />
        </mxCell>
        <mxCell id="4EnHzQvOEP9zkQGpacSF-49" value="*" style="text;html=1;strokeColor=none;fillColor=none;align=center;verticalAlign=middle;whiteSpace=wrap;rounded=0;fontSize=30;fontStyle=1" parent="WIyWlLk6GJQsqaUBKTNV-1" vertex="1">
          <mxGeometry x="965" y="-130" width="60" height="30" as="geometry" />
        </mxCell>
        <mxCell id="4EnHzQvOEP9zkQGpacSF-50" value="*" style="text;html=1;strokeColor=none;fillColor=none;align=center;verticalAlign=middle;whiteSpace=wrap;rounded=0;fontSize=30;fontStyle=1" parent="WIyWlLk6GJQsqaUBKTNV-1" vertex="1">
          <mxGeometry x="592.5" y="660" width="60" height="30" as="geometry" />
        </mxCell>
        <mxCell id="4EnHzQvOEP9zkQGpacSF-51" value="*" style="text;html=1;strokeColor=none;fillColor=none;align=center;verticalAlign=middle;whiteSpace=wrap;rounded=0;fontSize=30;fontStyle=1" parent="WIyWlLk6GJQsqaUBKTNV-1" vertex="1">
          <mxGeometry x="1330" y="675" width="60" height="30" as="geometry" />
        </mxCell>
        <mxCell id="4EnHzQvOEP9zkQGpacSF-52" value="*" style="text;html=1;strokeColor=none;fillColor=none;align=center;verticalAlign=middle;whiteSpace=wrap;rounded=0;fontSize=30;fontStyle=1" parent="WIyWlLk6GJQsqaUBKTNV-1" vertex="1">
          <mxGeometry x="1282.5" y="198" width="60" height="30" as="geometry" />
        </mxCell>
        <mxCell id="4EnHzQvOEP9zkQGpacSF-53" value="*" style="text;html=1;strokeColor=none;fillColor=none;align=center;verticalAlign=middle;whiteSpace=wrap;rounded=0;fontSize=30;fontStyle=1" parent="WIyWlLk6GJQsqaUBKTNV-1" vertex="1">
          <mxGeometry x="1260" y="-160" width="60" height="30" as="geometry" />
        </mxCell>
        <mxCell id="4EnHzQvOEP9zkQGpacSF-54" value="*" style="text;html=1;strokeColor=none;fillColor=none;align=center;verticalAlign=middle;whiteSpace=wrap;rounded=0;fontSize=30;fontStyle=1" parent="WIyWlLk6GJQsqaUBKTNV-1" vertex="1">
          <mxGeometry x="764" y="-304" width="60" height="30" as="geometry" />
        </mxCell>
        <mxCell id="4EnHzQvOEP9zkQGpacSF-56" value="1" style="text;html=1;strokeColor=none;fillColor=none;align=center;verticalAlign=middle;whiteSpace=wrap;rounded=0;fontSize=22;fontStyle=1" parent="WIyWlLk6GJQsqaUBKTNV-1" vertex="1">
          <mxGeometry x="1500" y="-335" width="60" height="30" as="geometry" />
        </mxCell>
        <mxCell id="4EnHzQvOEP9zkQGpacSF-57" value="*" style="text;html=1;strokeColor=none;fillColor=none;align=center;verticalAlign=middle;whiteSpace=wrap;rounded=0;fontSize=30;fontStyle=1" parent="WIyWlLk6GJQsqaUBKTNV-1" vertex="1">
          <mxGeometry x="392" y="-167" width="60" height="30" as="geometry" />
        </mxCell>
        <mxCell id="4EnHzQvOEP9zkQGpacSF-59" value="*" style="text;html=1;strokeColor=none;fillColor=none;align=center;verticalAlign=middle;whiteSpace=wrap;rounded=0;fontSize=30;fontStyle=1" parent="WIyWlLk6GJQsqaUBKTNV-1" vertex="1">
          <mxGeometry x="-52" y="-197" width="60" height="30" as="geometry" />
        </mxCell>
        <mxCell id="4EnHzQvOEP9zkQGpacSF-61" value="1" style="text;html=1;strokeColor=none;fillColor=none;align=center;verticalAlign=middle;whiteSpace=wrap;rounded=0;fontSize=22;fontStyle=1" parent="WIyWlLk6GJQsqaUBKTNV-1" vertex="1">
          <mxGeometry x="-9" y="-365" width="60" height="30" as="geometry" />
        </mxCell>
        <mxCell id="4EnHzQvOEP9zkQGpacSF-62" value="1" style="text;html=1;strokeColor=none;fillColor=none;align=center;verticalAlign=middle;whiteSpace=wrap;rounded=0;fontSize=22;fontStyle=1" parent="WIyWlLk6GJQsqaUBKTNV-1" vertex="1">
          <mxGeometry x="392" y="-67" width="60" height="30" as="geometry" />
        </mxCell>
        <mxCell id="4EnHzQvOEP9zkQGpacSF-68" value="1" style="text;html=1;strokeColor=none;fillColor=none;align=center;verticalAlign=middle;whiteSpace=wrap;rounded=0;fontSize=22;fontStyle=1" parent="WIyWlLk6GJQsqaUBKTNV-1" vertex="1">
          <mxGeometry x="21" y="-59" width="60" height="30" as="geometry" />
        </mxCell>
        <mxCell id="4EnHzQvOEP9zkQGpacSF-73" value="1" style="text;html=1;strokeColor=none;fillColor=none;align=center;verticalAlign=middle;whiteSpace=wrap;rounded=0;fontSize=22;fontStyle=1" parent="WIyWlLk6GJQsqaUBKTNV-1" vertex="1">
          <mxGeometry x="60" y="-365" width="60" height="30" as="geometry" />
        </mxCell>
        <mxCell id="4EnHzQvOEP9zkQGpacSF-74" value="1" style="text;html=1;strokeColor=none;fillColor=none;align=center;verticalAlign=middle;whiteSpace=wrap;rounded=0;fontSize=22;fontStyle=1" parent="WIyWlLk6GJQsqaUBKTNV-1" vertex="1">
          <mxGeometry x="940" y="660" width="60" height="30" as="geometry" />
        </mxCell>
        <mxCell id="uAslO9PFIVOA7p9p40KG-0" value="" style="endArrow=none;html=1;rounded=0;strokeWidth=2;" parent="WIyWlLk6GJQsqaUBKTNV-1" edge="1">
          <mxGeometry width="50" height="50" relative="1" as="geometry">
            <mxPoint x="830" y="-600" as="sourcePoint" />
            <mxPoint x="1520" y="-550" as="targetPoint" />
            <Array as="points">
              <mxPoint x="1520" y="-600" />
            </Array>
          </mxGeometry>
        </mxCell>
        <mxCell id="uAslO9PFIVOA7p9p40KG-2" value="" style="endArrow=none;html=1;rounded=0;exitX=0.25;exitY=0;exitDx=0;exitDy=0;strokeWidth=2;" parent="WIyWlLk6GJQsqaUBKTNV-1" edge="1">
          <mxGeometry width="50" height="50" relative="1" as="geometry">
            <mxPoint x="57.5" y="-550" as="sourcePoint" />
            <mxPoint x="830" y="-600" as="targetPoint" />
            <Array as="points">
              <mxPoint x="58" y="-600" />
            </Array>
          </mxGeometry>
        </mxCell>
        <mxCell id="uAslO9PFIVOA7p9p40KG-8" value="" style="endArrow=none;html=1;rounded=0;entryX=-0.004;entryY=0.265;entryDx=0;entryDy=0;entryPerimeter=0;" parent="WIyWlLk6GJQsqaUBKTNV-1" target="2JS95DW83qILI5_Ju0iu-32" edge="1">
          <mxGeometry width="50" height="50" relative="1" as="geometry">
            <mxPoint x="600" y="685" as="sourcePoint" />
            <mxPoint x="1020" y="690" as="targetPoint" />
          </mxGeometry>
        </mxCell>
        <mxCell id="2MAmIg8SCS1WsiqoxTN9-4" value="&lt;b style=&quot;border-color: var(--border-color);&quot;&gt;&lt;font style=&quot;font-size: 20px;&quot;&gt;Simple_User / &lt;br&gt;Απλός Χρήστης&lt;/font&gt;&lt;/b&gt;" style="swimlane;fontStyle=1;align=center;verticalAlign=top;childLayout=stackLayout;horizontal=1;startSize=60;horizontalStack=0;resizeParent=1;resizeParentMax=0;resizeLast=0;collapsible=1;marginBottom=0;whiteSpace=wrap;html=1;" parent="WIyWlLk6GJQsqaUBKTNV-1" vertex="1">
          <mxGeometry y="-550" width="210" height="180" as="geometry" />
        </mxCell>
        <mxCell id="2MAmIg8SCS1WsiqoxTN9-5" value="&lt;font style=&quot;font-size: 19px;&quot;&gt;- score: int&lt;/font&gt;" style="text;strokeColor=none;fillColor=none;align=left;verticalAlign=top;spacingLeft=4;spacingRight=4;overflow=hidden;rotatable=0;points=[[0,0.5],[1,0.5]];portConstraint=eastwest;whiteSpace=wrap;html=1;" parent="2MAmIg8SCS1WsiqoxTN9-4" vertex="1">
          <mxGeometry y="60" width="210" height="30" as="geometry" />
        </mxCell>
        <mxCell id="2MAmIg8SCS1WsiqoxTN9-6" value="" style="line;strokeWidth=1;fillColor=none;align=left;verticalAlign=middle;spacingTop=-1;spacingLeft=3;spacingRight=3;rotatable=0;labelPosition=right;points=[];portConstraint=eastwest;strokeColor=inherit;" parent="2MAmIg8SCS1WsiqoxTN9-4" vertex="1">
          <mxGeometry y="90" width="210" height="8" as="geometry" />
        </mxCell>
        <mxCell id="2MAmIg8SCS1WsiqoxTN9-7" value="&lt;font style=&quot;font-size: 20px;&quot;&gt;+ setters/getters&lt;br&gt;+ store()&lt;/font&gt;" style="text;strokeColor=none;fillColor=none;align=left;verticalAlign=top;spacingLeft=4;spacingRight=4;overflow=hidden;rotatable=0;points=[[0,0.5],[1,0.5]];portConstraint=eastwest;whiteSpace=wrap;html=1;" parent="2MAmIg8SCS1WsiqoxTN9-4" vertex="1">
          <mxGeometry y="98" width="210" height="82" as="geometry" />
        </mxCell>
        <mxCell id="2MAmIg8SCS1WsiqoxTN9-10" value="" style="endArrow=none;html=1;rounded=0;exitX=0;exitY=0.5;exitDx=0;exitDy=0;entryX=1.008;entryY=0.293;entryDx=0;entryDy=0;entryPerimeter=0;" parent="WIyWlLk6GJQsqaUBKTNV-1" edge="1">
          <mxGeometry width="50" height="50" relative="1" as="geometry">
            <mxPoint x="229.50000000000023" y="200.00000000000023" as="sourcePoint" />
            <mxPoint x="435.6399999999999" y="200.23000000000002" as="targetPoint" />
          </mxGeometry>
        </mxCell>
        <mxCell id="2MAmIg8SCS1WsiqoxTN9-11" value="" style="line;strokeWidth=1;fillColor=none;align=left;verticalAlign=middle;spacingTop=-1;spacingLeft=3;spacingRight=3;rotatable=0;labelPosition=right;points=[];portConstraint=eastwest;strokeColor=inherit;" parent="WIyWlLk6GJQsqaUBKTNV-1" vertex="1">
          <mxGeometry x="736" y="-482" width="188" height="8" as="geometry" />
        </mxCell>
        <mxCell id="2MAmIg8SCS1WsiqoxTN9-12" value="" style="line;strokeWidth=1;fillColor=none;align=left;verticalAlign=middle;spacingTop=-1;spacingLeft=3;spacingRight=3;rotatable=0;labelPosition=right;points=[];portConstraint=eastwest;strokeColor=inherit;" parent="WIyWlLk6GJQsqaUBKTNV-1" vertex="1">
          <mxGeometry x="1421" y="-404" width="188" height="8" as="geometry" />
        </mxCell>
        <mxCell id="2MAmIg8SCS1WsiqoxTN9-13" value="" style="endArrow=none;html=1;rounded=0;exitX=0.994;exitY=0.622;exitDx=0;exitDy=0;exitPerimeter=0;" parent="WIyWlLk6GJQsqaUBKTNV-1" source="zkfFHV4jXpPFQw0GAbJ--1" edge="1">
          <mxGeometry width="50" height="50" relative="1" as="geometry">
            <mxPoint x="907" y="-695" as="sourcePoint" />
            <mxPoint x="735" y="-695" as="targetPoint" />
          </mxGeometry>
        </mxCell>
        <mxCell id="2MAmIg8SCS1WsiqoxTN9-15" value="" style="endArrow=none;html=1;rounded=0;exitX=-0.001;exitY=0.706;exitDx=0;exitDy=0;exitPerimeter=0;" parent="WIyWlLk6GJQsqaUBKTNV-1" edge="1">
          <mxGeometry width="50" height="50" relative="1" as="geometry">
            <mxPoint x="1014.7449999999999" y="-45.37999999999988" as="sourcePoint" />
            <mxPoint x="1270" y="-46" as="targetPoint" />
          </mxGeometry>
        </mxCell>
        <mxCell id="SmE0G_Dkq9-uWP9Ef5G5-0" value="ToursHistoryController" style="swimlane;fontStyle=1;align=center;verticalAlign=top;childLayout=stackLayout;horizontal=1;startSize=26;horizontalStack=0;resizeParent=1;resizeParentMax=0;resizeLast=0;collapsible=1;marginBottom=0;whiteSpace=wrap;html=1;" parent="WIyWlLk6GJQsqaUBKTNV-1" vertex="1">
          <mxGeometry x="23" y="-1140" width="220" height="120" as="geometry" />
        </mxCell>
        <mxCell id="SmE0G_Dkq9-uWP9Ef5G5-1" value="- ToursHistoryView_UIComponents" style="text;strokeColor=none;fillColor=none;align=left;verticalAlign=top;spacingLeft=4;spacingRight=4;overflow=hidden;rotatable=0;points=[[0,0.5],[1,0.5]];portConstraint=eastwest;whiteSpace=wrap;html=1;" parent="SmE0G_Dkq9-uWP9Ef5G5-0" vertex="1">
          <mxGeometry y="26" width="220" height="26" as="geometry" />
        </mxCell>
        <mxCell id="SmE0G_Dkq9-uWP9Ef5G5-2" value="" style="line;strokeWidth=1;fillColor=none;align=left;verticalAlign=middle;spacingTop=-1;spacingLeft=3;spacingRight=3;rotatable=0;labelPosition=right;points=[];portConstraint=eastwest;strokeColor=inherit;" parent="SmE0G_Dkq9-uWP9Ef5G5-0" vertex="1">
          <mxGeometry y="52" width="220" height="8" as="geometry" />
        </mxCell>
        <mxCell id="SmE0G_Dkq9-uWP9Ef5G5-3" value="+ create_tour()&lt;br&gt;+ create_virtual_tour()&lt;br&gt;+ show()" style="text;strokeColor=none;fillColor=none;align=left;verticalAlign=top;spacingLeft=4;spacingRight=4;overflow=hidden;rotatable=0;points=[[0,0.5],[1,0.5]];portConstraint=eastwest;whiteSpace=wrap;html=1;" parent="SmE0G_Dkq9-uWP9Ef5G5-0" vertex="1">
          <mxGeometry y="60" width="220" height="60" as="geometry" />
        </mxCell>
        <mxCell id="SmE0G_Dkq9-uWP9Ef5G5-10" value="NewTourController" style="swimlane;fontStyle=1;align=center;verticalAlign=top;childLayout=stackLayout;horizontal=1;startSize=26;horizontalStack=0;resizeParent=1;resizeParentMax=0;resizeLast=0;collapsible=1;marginBottom=0;whiteSpace=wrap;html=1;" parent="WIyWlLk6GJQsqaUBKTNV-1" vertex="1">
          <mxGeometry x="290" y="-1140" width="220" height="180" as="geometry" />
        </mxCell>
        <mxCell id="SmE0G_Dkq9-uWP9Ef5G5-11" value="- NewTourView_UIComponents" style="text;strokeColor=none;fillColor=none;align=left;verticalAlign=top;spacingLeft=4;spacingRight=4;overflow=hidden;rotatable=0;points=[[0,0.5],[1,0.5]];portConstraint=eastwest;whiteSpace=wrap;html=1;" parent="SmE0G_Dkq9-uWP9Ef5G5-10" vertex="1">
          <mxGeometry y="26" width="220" height="26" as="geometry" />
        </mxCell>
        <mxCell id="SmE0G_Dkq9-uWP9Ef5G5-12" value="" style="line;strokeWidth=1;fillColor=none;align=left;verticalAlign=middle;spacingTop=-1;spacingLeft=3;spacingRight=3;rotatable=0;labelPosition=right;points=[];portConstraint=eastwest;strokeColor=inherit;" parent="SmE0G_Dkq9-uWP9Ef5G5-10" vertex="1">
          <mxGeometry y="52" width="220" height="8" as="geometry" />
        </mxCell>
        <mxCell id="SmE0G_Dkq9-uWP9Ef5G5-13" value="+ validateTourInfo(): boolean&lt;br&gt;+ loadTags(): List(String)&lt;br&gt;+ checkFileSize(): boolean&lt;br&gt;+&amp;nbsp;validatePaymentMethod(): boolean&lt;br&gt;+ show()&lt;br style=&quot;border-color: var(--border-color);&quot;&gt;+ showMessage()&lt;br style=&quot;border-color: var(--border-color);&quot;&gt;+ save_files()" style="text;strokeColor=none;fillColor=none;align=left;verticalAlign=top;spacingLeft=4;spacingRight=4;overflow=hidden;rotatable=0;points=[[0,0.5],[1,0.5]];portConstraint=eastwest;whiteSpace=wrap;html=1;" parent="SmE0G_Dkq9-uWP9Ef5G5-10" vertex="1">
          <mxGeometry y="60" width="220" height="120" as="geometry" />
        </mxCell>
        <mxCell id="SmE0G_Dkq9-uWP9Ef5G5-15" value="MyJOffersHandler" style="swimlane;fontStyle=1;align=center;verticalAlign=top;childLayout=stackLayout;horizontal=1;startSize=26;horizontalStack=0;resizeParent=1;resizeParentMax=0;resizeLast=0;collapsible=1;marginBottom=0;whiteSpace=wrap;html=1;" parent="WIyWlLk6GJQsqaUBKTNV-1" vertex="1">
          <mxGeometry x="21" y="-950" width="220" height="90" as="geometry" />
        </mxCell>
        <mxCell id="SmE0G_Dkq9-uWP9Ef5G5-16" value="- MyJOffersView_UIComponents" style="text;strokeColor=none;fillColor=none;align=left;verticalAlign=top;spacingLeft=4;spacingRight=4;overflow=hidden;rotatable=0;points=[[0,0.5],[1,0.5]];portConstraint=eastwest;whiteSpace=wrap;html=1;" parent="SmE0G_Dkq9-uWP9Ef5G5-15" vertex="1">
          <mxGeometry y="26" width="220" height="26" as="geometry" />
        </mxCell>
        <mxCell id="SmE0G_Dkq9-uWP9Ef5G5-17" value="" style="line;strokeWidth=1;fillColor=none;align=left;verticalAlign=middle;spacingTop=-1;spacingLeft=3;spacingRight=3;rotatable=0;labelPosition=right;points=[];portConstraint=eastwest;strokeColor=inherit;" parent="SmE0G_Dkq9-uWP9Ef5G5-15" vertex="1">
          <mxGeometry y="52" width="220" height="8" as="geometry" />
        </mxCell>
        <mxCell id="SmE0G_Dkq9-uWP9Ef5G5-18" value="+ createJOffer()" style="text;strokeColor=none;fillColor=none;align=left;verticalAlign=top;spacingLeft=4;spacingRight=4;overflow=hidden;rotatable=0;points=[[0,0.5],[1,0.5]];portConstraint=eastwest;whiteSpace=wrap;html=1;" parent="SmE0G_Dkq9-uWP9Ef5G5-15" vertex="1">
          <mxGeometry y="60" width="220" height="30" as="geometry" />
        </mxCell>
        <mxCell id="SmE0G_Dkq9-uWP9Ef5G5-20" value="NewJOfferHandler" style="swimlane;fontStyle=1;align=center;verticalAlign=top;childLayout=stackLayout;horizontal=1;startSize=26;horizontalStack=0;resizeParent=1;resizeParentMax=0;resizeLast=0;collapsible=1;marginBottom=0;whiteSpace=wrap;html=1;" parent="WIyWlLk6GJQsqaUBKTNV-1" vertex="1">
          <mxGeometry x="563" y="-1140" width="220" height="180" as="geometry" />
        </mxCell>
        <mxCell id="SmE0G_Dkq9-uWP9Ef5G5-21" value="- NewTourView_UIComponents" style="text;strokeColor=none;fillColor=none;align=left;verticalAlign=top;spacingLeft=4;spacingRight=4;overflow=hidden;rotatable=0;points=[[0,0.5],[1,0.5]];portConstraint=eastwest;whiteSpace=wrap;html=1;" parent="SmE0G_Dkq9-uWP9Ef5G5-20" vertex="1">
          <mxGeometry y="26" width="220" height="26" as="geometry" />
        </mxCell>
        <mxCell id="SmE0G_Dkq9-uWP9Ef5G5-22" value="" style="line;strokeWidth=1;fillColor=none;align=left;verticalAlign=middle;spacingTop=-1;spacingLeft=3;spacingRight=3;rotatable=0;labelPosition=right;points=[];portConstraint=eastwest;strokeColor=inherit;" parent="SmE0G_Dkq9-uWP9Ef5G5-20" vertex="1">
          <mxGeometry y="52" width="220" height="8" as="geometry" />
        </mxCell>
        <mxCell id="SmE0G_Dkq9-uWP9Ef5G5-23" value="+&amp;nbsp;validateJOfferInfo(): boolean&lt;br&gt;+ loadTags(): List(String)&lt;br&gt;+ checkFileSize(): boolean&lt;br&gt;+ show()&lt;br style=&quot;border-color: var(--border-color);&quot;&gt;+ showMessage()&lt;br style=&quot;border-color: var(--border-color);&quot;&gt;+ save_files()" style="text;strokeColor=none;fillColor=none;align=left;verticalAlign=top;spacingLeft=4;spacingRight=4;overflow=hidden;rotatable=0;points=[[0,0.5],[1,0.5]];portConstraint=eastwest;whiteSpace=wrap;html=1;" parent="SmE0G_Dkq9-uWP9Ef5G5-20" vertex="1">
          <mxGeometry y="60" width="220" height="120" as="geometry" />
        </mxCell>
        <mxCell id="hSkz3sEZAJc7FOLqCPF8-0" value="NewVirtualTourController" style="swimlane;fontStyle=1;align=center;verticalAlign=top;childLayout=stackLayout;horizontal=1;startSize=26;horizontalStack=0;resizeParent=1;resizeParentMax=0;resizeLast=0;collapsible=1;marginBottom=0;whiteSpace=wrap;html=1;" vertex="1" parent="WIyWlLk6GJQsqaUBKTNV-1">
          <mxGeometry x="290" y="-920" width="220" height="240" as="geometry" />
        </mxCell>
        <mxCell id="hSkz3sEZAJc7FOLqCPF8-1" value="- NewVirtualTourView_UIComponents" style="text;strokeColor=none;fillColor=none;align=left;verticalAlign=top;spacingLeft=4;spacingRight=4;overflow=hidden;rotatable=0;points=[[0,0.5],[1,0.5]];portConstraint=eastwest;whiteSpace=wrap;html=1;" vertex="1" parent="hSkz3sEZAJc7FOLqCPF8-0">
          <mxGeometry y="26" width="220" height="26" as="geometry" />
        </mxCell>
        <mxCell id="hSkz3sEZAJc7FOLqCPF8-2" value="" style="line;strokeWidth=1;fillColor=none;align=left;verticalAlign=middle;spacingTop=-1;spacingLeft=3;spacingRight=3;rotatable=0;labelPosition=right;points=[];portConstraint=eastwest;strokeColor=inherit;" vertex="1" parent="hSkz3sEZAJc7FOLqCPF8-0">
          <mxGeometry y="52" width="220" height="8" as="geometry" />
        </mxCell>
        <mxCell id="hSkz3sEZAJc7FOLqCPF8-3" value="+ load_tags(): List(String)&lt;br&gt;+ validate_form(): boolean&lt;br&gt;+ apply_tags()&lt;br&gt;+ load_ok(): boolean&lt;br&gt;+ load_templates()&lt;br&gt;+ apply_template()&lt;br&gt;+ check_media_size()&lt;br&gt;+ post()&lt;br&gt;+ show()&lt;br style=&quot;border-color: var(--border-color);&quot;&gt;+ show_message()&lt;br style=&quot;border-color: var(--border-color);&quot;&gt;+ save_files()&lt;br&gt;+ create_VirtualTour()" style="text;strokeColor=none;fillColor=none;align=left;verticalAlign=top;spacingLeft=4;spacingRight=4;overflow=hidden;rotatable=0;points=[[0,0.5],[1,0.5]];portConstraint=eastwest;whiteSpace=wrap;html=1;" vertex="1" parent="hSkz3sEZAJc7FOLqCPF8-0">
          <mxGeometry y="60" width="220" height="180" as="geometry" />
        </mxCell>
        <mxCell id="hSkz3sEZAJc7FOLqCPF8-4" value="VirtualTour" style="swimlane;fontStyle=1;align=center;verticalAlign=top;childLayout=stackLayout;horizontal=1;startSize=26;horizontalStack=0;resizeParent=1;resizeParentMax=0;resizeLast=0;collapsible=1;marginBottom=0;whiteSpace=wrap;html=1;" vertex="1" parent="WIyWlLk6GJQsqaUBKTNV-1">
          <mxGeometry x="23" y="-840" width="220" height="90" as="geometry" />
        </mxCell>
        <mxCell id="hSkz3sEZAJc7FOLqCPF8-5" value="- file_paths: list(String)" style="text;strokeColor=none;fillColor=none;align=left;verticalAlign=top;spacingLeft=4;spacingRight=4;overflow=hidden;rotatable=0;points=[[0,0.5],[1,0.5]];portConstraint=eastwest;whiteSpace=wrap;html=1;" vertex="1" parent="hSkz3sEZAJc7FOLqCPF8-4">
          <mxGeometry y="26" width="220" height="26" as="geometry" />
        </mxCell>
        <mxCell id="hSkz3sEZAJc7FOLqCPF8-6" value="" style="line;strokeWidth=1;fillColor=none;align=left;verticalAlign=middle;spacingTop=-1;spacingLeft=3;spacingRight=3;rotatable=0;labelPosition=right;points=[];portConstraint=eastwest;strokeColor=inherit;" vertex="1" parent="hSkz3sEZAJc7FOLqCPF8-4">
          <mxGeometry y="52" width="220" height="8" as="geometry" />
        </mxCell>
        <mxCell id="hSkz3sEZAJc7FOLqCPF8-7" value="store_tour()" style="text;strokeColor=none;fillColor=none;align=left;verticalAlign=top;spacingLeft=4;spacingRight=4;overflow=hidden;rotatable=0;points=[[0,0.5],[1,0.5]];portConstraint=eastwest;whiteSpace=wrap;html=1;" vertex="1" parent="hSkz3sEZAJc7FOLqCPF8-4">
          <mxGeometry y="60" width="220" height="30" as="geometry" />
        </mxCell>
        <mxCell id="hSkz3sEZAJc7FOLqCPF8-8" value="EventsHistoryController" style="swimlane;fontStyle=1;align=center;verticalAlign=top;childLayout=stackLayout;horizontal=1;startSize=26;horizontalStack=0;resizeParent=1;resizeParentMax=0;resizeLast=0;collapsible=1;marginBottom=0;whiteSpace=wrap;html=1;" vertex="1" parent="WIyWlLk6GJQsqaUBKTNV-1">
          <mxGeometry x="-240" y="-1140" width="220" height="120" as="geometry" />
        </mxCell>
        <mxCell id="hSkz3sEZAJc7FOLqCPF8-9" value="- EventsHistoryView_UIComponents" style="text;strokeColor=none;fillColor=none;align=left;verticalAlign=top;spacingLeft=4;spacingRight=4;overflow=hidden;rotatable=0;points=[[0,0.5],[1,0.5]];portConstraint=eastwest;whiteSpace=wrap;html=1;" vertex="1" parent="hSkz3sEZAJc7FOLqCPF8-8">
          <mxGeometry y="26" width="220" height="26" as="geometry" />
        </mxCell>
        <mxCell id="hSkz3sEZAJc7FOLqCPF8-10" value="" style="line;strokeWidth=1;fillColor=none;align=left;verticalAlign=middle;spacingTop=-1;spacingLeft=3;spacingRight=3;rotatable=0;labelPosition=right;points=[];portConstraint=eastwest;strokeColor=inherit;" vertex="1" parent="hSkz3sEZAJc7FOLqCPF8-8">
          <mxGeometry y="52" width="220" height="8" as="geometry" />
        </mxCell>
        <mxCell id="hSkz3sEZAJc7FOLqCPF8-11" value="+ show()" style="text;strokeColor=none;fillColor=none;align=left;verticalAlign=top;spacingLeft=4;spacingRight=4;overflow=hidden;rotatable=0;points=[[0,0.5],[1,0.5]];portConstraint=eastwest;whiteSpace=wrap;html=1;" vertex="1" parent="hSkz3sEZAJc7FOLqCPF8-8">
          <mxGeometry y="60" width="220" height="60" as="geometry" />
        </mxCell>
        <mxCell id="hSkz3sEZAJc7FOLqCPF8-12" value="NewEventTourController" style="swimlane;fontStyle=1;align=center;verticalAlign=top;childLayout=stackLayout;horizontal=1;startSize=26;horizontalStack=0;resizeParent=1;resizeParentMax=0;resizeLast=0;collapsible=1;marginBottom=0;whiteSpace=wrap;html=1;" vertex="1" parent="WIyWlLk6GJQsqaUBKTNV-1">
          <mxGeometry x="-240" y="-920" width="220" height="190" as="geometry" />
        </mxCell>
        <mxCell id="hSkz3sEZAJc7FOLqCPF8-13" value="- NewEventTourView_UIComponents" style="text;strokeColor=none;fillColor=none;align=left;verticalAlign=top;spacingLeft=4;spacingRight=4;overflow=hidden;rotatable=0;points=[[0,0.5],[1,0.5]];portConstraint=eastwest;whiteSpace=wrap;html=1;" vertex="1" parent="hSkz3sEZAJc7FOLqCPF8-12">
          <mxGeometry y="26" width="220" height="26" as="geometry" />
        </mxCell>
        <mxCell id="hSkz3sEZAJc7FOLqCPF8-14" value="" style="line;strokeWidth=1;fillColor=none;align=left;verticalAlign=middle;spacingTop=-1;spacingLeft=3;spacingRight=3;rotatable=0;labelPosition=right;points=[];portConstraint=eastwest;strokeColor=inherit;" vertex="1" parent="hSkz3sEZAJc7FOLqCPF8-12">
          <mxGeometry y="52" width="220" height="8" as="geometry" />
        </mxCell>
        <mxCell id="hSkz3sEZAJc7FOLqCPF8-15" value="+ load_tags(): List(String)&lt;br&gt;+ validate_form(): boolean&lt;br&gt;+ apply_tags()&lt;br&gt;+ load_ok(): boolean&lt;br&gt;+ post()&lt;br&gt;+ show()&lt;br style=&quot;border-color: var(--border-color);&quot;&gt;+ show_message()&lt;br style=&quot;border-color: var(--border-color);&quot;&gt;+ create_event()" style="text;strokeColor=none;fillColor=none;align=left;verticalAlign=top;spacingLeft=4;spacingRight=4;overflow=hidden;rotatable=0;points=[[0,0.5],[1,0.5]];portConstraint=eastwest;whiteSpace=wrap;html=1;" vertex="1" parent="hSkz3sEZAJc7FOLqCPF8-12">
          <mxGeometry y="60" width="220" height="130" as="geometry" />
        </mxCell>
        <mxCell id="hSkz3sEZAJc7FOLqCPF8-16" value="Event" style="swimlane;fontStyle=1;align=center;verticalAlign=top;childLayout=stackLayout;horizontal=1;startSize=26;horizontalStack=0;resizeParent=1;resizeParentMax=0;resizeLast=0;collapsible=1;marginBottom=0;whiteSpace=wrap;html=1;" vertex="1" parent="WIyWlLk6GJQsqaUBKTNV-1">
          <mxGeometry x="-240" y="-710" width="220" height="90" as="geometry" />
        </mxCell>
        <mxCell id="hSkz3sEZAJc7FOLqCPF8-17" value="- file_paths: list(String)" style="text;strokeColor=none;fillColor=none;align=left;verticalAlign=top;spacingLeft=4;spacingRight=4;overflow=hidden;rotatable=0;points=[[0,0.5],[1,0.5]];portConstraint=eastwest;whiteSpace=wrap;html=1;" vertex="1" parent="hSkz3sEZAJc7FOLqCPF8-16">
          <mxGeometry y="26" width="220" height="26" as="geometry" />
        </mxCell>
        <mxCell id="hSkz3sEZAJc7FOLqCPF8-18" value="" style="line;strokeWidth=1;fillColor=none;align=left;verticalAlign=middle;spacingTop=-1;spacingLeft=3;spacingRight=3;rotatable=0;labelPosition=right;points=[];portConstraint=eastwest;strokeColor=inherit;" vertex="1" parent="hSkz3sEZAJc7FOLqCPF8-16">
          <mxGeometry y="52" width="220" height="8" as="geometry" />
        </mxCell>
        <mxCell id="hSkz3sEZAJc7FOLqCPF8-19" value="store_event()" style="text;strokeColor=none;fillColor=none;align=left;verticalAlign=top;spacingLeft=4;spacingRight=4;overflow=hidden;rotatable=0;points=[[0,0.5],[1,0.5]];portConstraint=eastwest;whiteSpace=wrap;html=1;" vertex="1" parent="hSkz3sEZAJc7FOLqCPF8-16">
          <mxGeometry y="60" width="220" height="30" as="geometry" />
        </mxCell>
      </root>
    </mxGraphModel>
  </diagram>
</mxfile>
